<svg width="497" height="68" xmlns="http://www.w3.org/2000/svg" xmlns:xlink="http://www.w3.org/1999/xlink" xml:space="preserve" overflow="hidden"><defs><clipPath id="clip0"><rect x="0" y="0" width="497" height="68"/></clipPath></defs><g clip-path="url(#clip0)"><path d="M17.9191 18.0457 77.5016 18.0457 77.5016 77.6282 17.9191 77.6282Z" fill="#2E2D62" transform="matrix(1 0 0 1.00563 -17.6055 -10.6549)"/><path d="M70.9587 24.6097 64.0148 24.6097 54.6648 34.5507 54.6648 24.6097 41.178 24.6097 41.178 37.8221C41.178 40.6503 39.0885 42.2966 36.3025 42.2966 33.5165 42.2966 31.427 40.6503 31.427 37.8221L31.427 24.6097 24.4831 24.6097 24.4831 37.9065C24.4831 43.8584 29.2952 47.2776 34.7195 47.8475L24.4831 47.8475 24.4831 71.0853 31.427 71.0853 31.427 62.474 34.4662 62.474 40.8825 71.0853 70.9587 71.0853 70.9587 66.3997 62.8117 66.3997 62.8117 52.5542 70.9587 52.5542 70.9587 46.4334 60.9966 36.218 70.9587 26.0449ZM47.7209 40.7347 47.7209 51.52C46.2434 49.0294 42.8454 47.8686 37.7799 47.8475 42.2966 47.3832 46.4545 44.956 47.7209 40.7347ZM31.427 52.533 37.7799 52.533C40.397 52.533 41.4524 53.5461 41.4524 55.1291 41.4524 56.7121 40.397 57.7674 37.7799 57.7674L31.427 57.7674ZM55.8678 66.3786 47.7209 66.3786 47.7209 69.6501 41.98 62.1363C46.349 61.3343 48.6073 59.0759 48.6073 55.1502 48.6073 54.1793 48.4596 53.314 48.2063 52.5542L55.8678 52.5542ZM64.0148 47.8475 54.6648 47.8475 54.6648 37.8643Z" fill="#FFFFFF" transform="matrix(1 0 0 1.00563 -17.6055 -10.6549)"/><path d="M77.5016 10.5953 77.5016 18.0457 77.5016 77.6282 118.658 77.6282 118.658 47.8264 89.5953 18.0457 82.2926 10.5953Z" fill="#00BED5" transform="matrix(1 0 0 1.00563 -17.6055 -10.6549)"/><path d="M118.658 77.6282 137.084 77.6282 137.084 18.0457 89.5953 18.0457 118.658 47.8264Z" fill="#008AAD" transform="matrix(1 0 0 1.00563 -17.6055 -10.6549)"/><path d="M163.129 36.408 160.955 36.408 160.955 28.5776 160.828 28.5776 157.895 35.0572 155.657 35.0572 152.703 28.5776 152.576 28.5776 152.576 36.408 150.402 36.408 150.402 24.6097 153.125 24.6097 156.713 32.6933 156.839 32.6933 160.406 24.6097 163.129 24.6097Z" fill="#2E2D62" transform="matrix(1 0 0 1.00563 -17.6055 -10.6549)"/><path d="M172.226 36.408 169.756 31.8069 167.836 31.8069 167.836 36.408 165.662 36.408 165.662 24.6097 170.326 24.6097C172.69 24.6097 174.125 26.0027 174.125 28.0711 174.125 29.6752 173.239 30.8571 171.846 31.3848L174.568 36.3869 172.226 36.3869ZM167.836 29.9284 170.073 29.9284C171.213 29.9284 171.909 29.2108 171.909 28.2188 171.909 27.1846 171.213 26.5092 170.073 26.5092L167.836 26.5092Z" fill="#2E2D62" transform="matrix(1 0 0 1.00563 -17.6055 -10.6549)"/><path d="M181.428 36.5768C177.819 36.5768 175.624 34.023 175.624 30.5616 175.624 26.9947 177.945 24.4408 181.428 24.4408 184.087 24.4408 186.219 25.855 186.62 28.4721L184.235 28.4721C183.855 27.2691 182.863 26.5092 181.428 26.5092 179.317 26.5092 177.903 28.2822 177.903 30.5616 177.903 32.9466 179.423 34.5296 181.428 34.5296 182.969 34.5296 184.045 33.7697 184.404 32.63L186.789 32.63C186.409 35.1416 184.151 36.5768 181.428 36.5768Z" fill="#2E2D62" transform="matrix(1 0 0 1.00563 -17.6055 -10.6549)"/><path d="M195.442 36.408 193.226 36.408 193.226 24.6097 195.442 24.6097Z" fill="#2E2D62" transform="matrix(1 0 0 1.00563 -17.6055 -10.6549)"/><path d="M197.659 27.9867 199.621 27.9867 199.811 28.9787 199.938 28.9787C200.445 28.3244 201.141 27.8178 202.407 27.8178 204.412 27.8178 205.7 29.1053 205.7 31.3003L205.7 36.408 203.547 36.408 203.547 31.7436C203.547 30.3717 202.745 29.6963 201.753 29.6963 200.719 29.6963 199.811 30.3506 199.811 31.8491L199.811 36.408 197.659 36.408Z" fill="#2E2D62" transform="matrix(1 0 0 1.00563 -17.6055 -10.6549)"/><path d="M208.444 34.1285 208.444 29.6963 206.65 29.6963 206.65 27.9867 207.22 27.9867C208.254 27.9867 208.655 27.6068 208.655 26.6992L208.655 25.6861 210.618 25.6861 210.618 27.9867 212.834 27.9867 212.834 29.6963 210.618 29.6963 210.618 33.8331C210.618 34.2974 210.744 34.8673 211.736 34.8673 211.99 34.8673 212.306 34.825 212.559 34.7406L212.559 36.3658C212.179 36.4502 211.673 36.5557 211.082 36.5557 208.718 36.5768 208.444 35.0572 208.444 34.1285Z" fill="#2E2D62" transform="matrix(1 0 0 1.00563 -17.6055 -10.6549)"/><path d="M221.741 33.7486C221.403 35.4793 219.947 36.5768 217.815 36.5768 215.303 36.5768 213.488 34.8673 213.488 32.2712 213.488 29.4852 215.409 27.7967 217.73 27.7967 219.799 27.7967 221.719 29.1053 221.719 32.1235 221.719 32.3345 221.698 32.5034 221.677 32.7566L215.62 32.7566C215.704 33.9597 216.506 34.8461 217.815 34.8461 218.765 34.8461 219.44 34.4662 219.672 33.7275L221.741 33.7275ZM215.641 31.3214 219.672 31.3214C219.63 30.2872 218.849 29.5274 217.73 29.5274 216.548 29.5485 215.789 30.3083 215.641 31.3214Z" fill="#2E2D62" transform="matrix(1 0 0 1.00563 -17.6055 -10.6549)"/><path d="M229.909 29.1475C230.267 29.6118 230.457 30.1395 230.457 30.7305 230.457 32.5245 228.917 33.5587 226.912 33.5587 226.384 33.5587 225.92 33.4954 225.497 33.3687 225.223 33.4954 225.096 33.6853 225.096 33.9175 225.096 34.4029 225.645 34.5507 226.215 34.5507L227.861 34.5507C229.887 34.5507 230.922 35.5215 230.922 37.0412 230.922 38.8352 229.402 39.9327 226.954 39.9327 224.273 39.9327 223.028 38.603 222.859 37.1045L224.147 35.9859C223.556 35.6693 223.176 35.0994 223.176 34.4451 223.176 33.6431 223.703 33.1366 224.294 32.7989 223.661 32.3134 223.302 31.6169 223.302 30.7516 223.302 29.1053 224.632 27.8389 226.785 27.8389 227.524 27.8389 228.199 27.9867 228.748 28.261 229.297 27.9867 229.866 27.5223 230.204 27.058L231.259 28.2399C231.006 28.5143 230.478 28.8731 229.909 29.1475ZM227.566 36.2603 226.025 36.2603 224.906 37.21C225.096 37.801 225.708 38.3287 226.954 38.3287 227.988 38.3287 228.832 37.9487 228.832 37.1889 228.853 36.4713 228.199 36.2603 227.566 36.2603ZM228.389 30.7094C228.389 29.9284 227.84 29.3797 226.912 29.3797 225.962 29.3797 225.371 29.9284 225.371 30.7094 225.371 31.4481 225.962 31.9968 226.912 31.9968 227.819 31.9968 228.389 31.4481 228.389 30.7094Z" fill="#2E2D62" transform="matrix(1 0 0 1.00563 -17.6055 -10.6549)"/><path d="M232.399 27.9867 234.362 27.9867 234.573 29.1897 234.7 29.1897C235.227 28.3455 235.797 27.8178 237.211 27.8178L237.823 27.8178 237.823 29.9706C237.528 29.9284 237.211 29.9073 236.916 29.9073 235.058 29.9073 234.573 31.2792 234.573 32.4823L234.573 36.408 232.42 36.408 232.42 27.9867Z" fill="#2E2D62" transform="matrix(1 0 0 1.00563 -17.6055 -10.6549)"/><path d="M246.751 34.8039 246.751 36.4291 245.844 36.4291C245.042 36.4291 244.43 36.1969 244.134 35.416 243.564 36.1336 242.678 36.598 241.348 36.598 239.639 36.598 238.372 35.7959 238.372 34.1285 238.372 32.5034 239.596 31.7224 241.158 31.5747L243.796 31.3003 243.796 30.9415C243.796 30.0129 243.205 29.5696 242.382 29.5696 241.475 29.5696 241.01 30.0762 240.863 30.836L238.71 30.836C238.879 29.0842 240.229 27.86 242.382 27.86 244.345 27.86 245.949 28.852 245.949 31.1104L245.949 34.1919C245.949 34.6351 246.16 34.825 246.561 34.825L246.751 34.825ZM243.775 32.7566 241.897 32.9677C241.116 33.0521 240.525 33.3687 240.525 34.023 240.525 34.6984 241.053 34.9306 241.728 34.9306 242.636 34.9306 243.775 34.4873 243.775 33.1577Z" fill="#2E2D62" transform="matrix(1 0 0 1.00563 -17.6055 -10.6549)"/><path d="M248.777 34.1285 248.777 29.6963 246.983 29.6963 246.983 27.9867 247.553 27.9867C248.587 27.9867 248.988 27.6068 248.988 26.6992L248.988 25.6861 250.951 25.6861 250.951 27.9867 253.168 27.9867 253.168 29.6963 250.951 29.6963 250.951 33.8331C250.951 34.2974 251.078 34.8673 252.07 34.8673 252.323 34.8673 252.64 34.825 252.893 34.7406L252.893 36.3658C252.513 36.4502 252.007 36.5557 251.416 36.5557 249.031 36.5768 248.777 35.0572 248.777 34.1285Z" fill="#2E2D62" transform="matrix(1 0 0 1.00563 -17.6055 -10.6549)"/><path d="M254.181 25.6228C254.181 24.8841 254.814 24.3142 255.51 24.3142 256.228 24.3142 256.798 24.8841 256.798 25.6228 256.798 26.3193 256.207 26.9103 255.51 26.9103 254.793 26.9103 254.181 26.2982 254.181 25.6228ZM254.434 27.9867 256.587 27.9867 256.587 36.408 254.434 36.408Z" fill="#2E2D62" transform="matrix(1 0 0 1.00563 -17.6055 -10.6549)"/><path d="M257.663 27.9867 259.879 27.9867 262.116 34.1708 262.243 34.1708 264.459 27.9867 266.675 27.9867 263.467 36.408 260.892 36.408Z" fill="#2E2D62" transform="matrix(1 0 0 1.00563 -17.6055 -10.6549)"/><path d="M275.287 33.7486C274.949 35.4793 273.493 36.5768 271.361 36.5768 268.849 36.5768 267.034 34.8673 267.034 32.2712 267.034 29.4852 268.955 27.7967 271.277 27.7967 273.345 27.7967 275.266 29.1053 275.266 32.1235 275.266 32.3345 275.244 32.5034 275.223 32.7566L269.166 32.7566C269.25 33.9597 270.052 34.8461 271.361 34.8461 272.311 34.8461 272.986 34.4662 273.218 33.7275L275.287 33.7275ZM269.187 31.3214 273.218 31.3214C273.176 30.2872 272.395 29.5274 271.277 29.5274 270.116 29.5485 269.335 30.3083 269.187 31.3214Z" fill="#2E2D62" transform="matrix(1 0 0 1.00563 -17.6055 -10.6549)"/><path d="M158.464 51.9632 158.464 53.9049 150.402 53.9049 150.402 42.1066 158.296 42.1066 158.296 44.0484 152.576 44.0484 152.576 46.9822 157.515 46.9822 157.515 48.8606 152.576 48.8606 152.576 51.9632Z" fill="#2E2D62" transform="matrix(1 0 0 1.00563 -17.6055 -10.6549)"/><path d="M168.638 49.7048C168.638 52.4486 166.886 54.0738 164.67 54.0738 163.53 54.0738 162.686 53.6095 162.221 53.1029L162.221 57.2608 160.069 57.2608 160.069 45.4625 161.82 45.4625 162.01 46.4545 162.158 46.4545C162.559 45.9057 163.361 45.2937 164.67 45.2937 166.949 45.2937 168.638 47.0244 168.638 49.7048ZM166.485 49.7048C166.485 48.1852 165.619 47.1721 164.353 47.1721 163.066 47.1721 162.242 48.1852 162.242 49.7048 162.242 51.1823 163.066 52.1954 164.353 52.1954 165.619 52.1954 166.485 51.1823 166.485 49.7048Z" fill="#2E2D62" transform="matrix(1 0 0 1.00563 -17.6055 -10.6549)"/><path d="M169.967 43.0986C169.967 42.3599 170.6 41.7901 171.297 41.7901 172.015 41.7901 172.584 42.3599 172.584 43.0986 172.584 43.7951 171.993 44.3861 171.297 44.3861 170.579 44.3861 169.967 43.774 169.967 43.0986ZM170.221 45.4625 172.373 45.4625 172.373 53.8838 170.221 53.8838Z" fill="#2E2D62" transform="matrix(1 0 0 1.00563 -17.6055 -10.6549)"/><path d="M182.483 41.9378 182.483 53.9049 180.731 53.9049 180.541 52.913 180.394 52.913C179.993 53.4617 179.191 54.0738 177.882 54.0738 175.624 54.0738 173.914 52.3642 173.914 49.6837 173.914 46.9399 175.666 45.3148 177.882 45.3148 179.022 45.3148 179.866 45.7791 180.33 46.2856L180.33 41.9589 182.483 41.9589ZM180.309 49.6626C180.309 48.1852 179.486 47.1721 178.199 47.1721 176.911 47.1721 176.067 48.1852 176.067 49.6626 176.067 51.1823 176.932 52.1954 178.199 52.1954 179.486 52.1954 180.309 51.1823 180.309 49.6626Z" fill="#2E2D62" transform="matrix(1 0 0 1.00563 -17.6055 -10.6549)"/><path d="M192.255 51.2245C191.918 52.9552 190.461 54.0527 188.33 54.0527 185.818 54.0527 184.003 52.3431 184.003 49.747 184.003 46.961 185.924 45.2726 188.245 45.2726 190.314 45.2726 192.234 46.5811 192.234 49.5993 192.234 49.8104 192.213 49.9792 192.192 50.2325L186.156 50.2325C186.24 51.4355 187.042 52.322 188.351 52.322 189.3 52.322 189.976 51.9421 190.208 51.2034L192.255 51.2034ZM186.156 48.7973 190.187 48.7973C190.145 47.7631 189.364 47.0033 188.245 47.0033 187.084 47.0244 186.325 47.7842 186.156 48.7973Z" fill="#2E2D62" transform="matrix(1 0 0 1.00563 -17.6055 -10.6549)"/><path d="M193.881 45.4625 195.843 45.4625 196.033 46.4545 196.16 46.4545C196.624 45.8213 197.321 45.2937 198.461 45.2937 199.79 45.2937 200.381 46.0113 200.677 46.6233L200.803 46.6233C201.268 45.9691 202.006 45.2937 203.442 45.2937 205.172 45.2937 206.291 46.3279 206.291 48.3751L206.291 53.8838 204.138 53.8838 204.138 48.7762C204.138 47.6998 203.505 47.151 202.682 47.151 201.774 47.151 201.141 47.8264 201.141 48.8817L201.141 53.8627 198.988 53.8627 198.988 48.8184C198.988 47.6998 198.355 47.1299 197.553 47.1299 196.772 47.1299 196.012 47.6786 196.012 48.8395L196.012 53.8416 193.859 53.8416 193.859 45.4625Z" fill="#2E2D62" transform="matrix(1 0 0 1.00563 -17.6055 -10.6549)"/><path d="M207.937 43.0986C207.937 42.3599 208.57 41.7901 209.267 41.7901 209.984 41.7901 210.554 42.3599 210.554 43.0986 210.554 43.7951 209.963 44.3861 209.267 44.3861 208.549 44.3861 207.937 43.774 207.937 43.0986ZM208.19 45.4625 210.343 45.4625 210.343 53.8838 208.19 53.8838Z" fill="#2E2D62" transform="matrix(1 0 0 1.00563 -17.6055 -10.6549)"/><path d="M211.884 49.6626C211.884 47.0666 213.805 45.2937 216.337 45.2937 218.87 45.2937 220.791 47.0877 220.791 49.6626 220.791 52.2798 218.891 54.0527 216.337 54.0527 213.805 54.0527 211.884 52.2587 211.884 49.6626ZM218.638 49.6626C218.638 48.2696 217.709 47.1721 216.337 47.1721 214.965 47.1721 214.037 48.2696 214.037 49.6626 214.037 51.0767 214.944 52.1954 216.337 52.1954 217.73 52.1954 218.638 51.0767 218.638 49.6626Z" fill="#2E2D62" transform="matrix(1 0 0 1.00563 -17.6055 -10.6549)"/><path d="M222.332 41.9378 224.484 41.9378 224.484 53.9049 222.332 53.9049Z" fill="#2E2D62" transform="matrix(1 0 0 1.00563 -17.6055 -10.6549)"/><path d="M226.025 49.6626C226.025 47.0666 227.946 45.2937 230.478 45.2937 233.011 45.2937 234.932 47.0877 234.932 49.6626 234.932 52.2798 233.032 54.0527 230.478 54.0527 227.967 54.0527 226.025 52.2587 226.025 49.6626ZM232.779 49.6626C232.779 48.2696 231.85 47.1721 230.478 47.1721 229.107 47.1721 228.178 48.2696 228.178 49.6626 228.178 51.0767 229.085 52.1954 230.478 52.1954 231.871 52.1954 232.779 51.0767 232.779 49.6626Z" fill="#2E2D62" transform="matrix(1 0 0 1.00563 -17.6055 -10.6549)"/><path d="M243.015 46.6233C243.374 47.0877 243.564 47.6153 243.564 48.2063 243.564 50.0003 242.023 51.0345 240.018 51.0345 239.491 51.0345 239.026 50.9712 238.604 50.8446 238.33 50.9712 238.203 51.1612 238.203 51.3933 238.203 51.8788 238.752 52.0265 239.322 52.0265L240.968 52.0265C242.994 52.0265 244.029 52.9974 244.029 54.517 244.029 56.311 242.509 57.4086 240.061 57.4086 237.38 57.4086 236.135 56.0789 235.966 54.5803L237.254 53.4617C236.663 53.1451 236.283 52.5753 236.283 51.921 236.283 51.1189 236.81 50.6124 237.401 50.2747 236.768 49.7893 236.409 49.0928 236.409 48.2274 236.409 46.5811 237.739 45.3148 239.892 45.3148 240.63 45.3148 241.306 45.4625 241.855 45.7369 242.403 45.4625 242.973 44.9982 243.311 44.5338L244.366 45.7158C244.113 45.9902 243.585 46.3701 243.015 46.6233ZM240.694 53.7361 239.153 53.7361 238.034 54.6859C238.224 55.2768 238.836 55.8045 240.082 55.8045 241.116 55.8045 241.96 55.4246 241.96 54.6648 241.96 53.9683 241.306 53.7361 240.694 53.7361ZM241.496 48.1852C241.496 47.4043 240.947 46.8555 240.018 46.8555 239.069 46.8555 238.478 47.4043 238.478 48.1852 238.478 48.9239 239.069 49.4727 240.018 49.4727 240.947 49.4727 241.496 48.9239 241.496 48.1852Z" fill="#2E2D62" transform="matrix(1 0 0 1.00563 -17.6055 -10.6549)"/><path d="M246.013 57.2397 246.013 55.6356C246.329 55.699 246.646 55.7412 246.899 55.7412 247.701 55.7412 248.419 55.4457 248.756 54.6226L249.052 53.9049 248.376 53.9049 245.168 45.4836 247.384 45.4836 249.685 51.7099 249.812 51.7099 251.943 45.4836 254.159 45.4836 250.761 54.9602C250.508 55.699 249.854 57.4508 247.384 57.4508 246.815 57.4297 246.392 57.3452 246.013 57.2397Z" fill="#2E2D62" transform="matrix(1 0 0 1.00563 -17.6055 -10.6549)"/><path d="M160.09 66.8008C160.09 70.0089 158.021 71.5285 155.277 71.5285 152.513 71.5285 150.402 69.9878 150.402 66.8008L150.402 59.5825 152.618 59.5825 152.618 66.7374C152.618 68.5315 153.737 69.4812 155.256 69.4812 156.776 69.4812 157.852 68.5104 157.852 66.7374L157.852 59.5825 160.069 59.5825 160.069 66.8008Z" fill="#2E2D62" transform="matrix(1 0 0 1.00563 -17.6055 -10.6549)"/><path d="M162.221 62.9384 164.184 62.9384 164.374 63.9303 164.501 63.9303C165.007 63.276 165.704 62.7695 166.97 62.7695 168.975 62.7695 170.263 64.057 170.263 66.252L170.263 71.3597 168.11 71.3597 168.11 66.6952C168.11 65.3233 167.308 64.6479 166.316 64.6479 165.282 64.6479 164.374 65.3022 164.374 66.8008L164.374 71.3597 162.221 71.3597Z" fill="#2E2D62" transform="matrix(1 0 0 1.00563 -17.6055 -10.6549)"/><path d="M171.909 60.5745C171.909 59.8358 172.542 59.2659 173.239 59.2659 173.956 59.2659 174.526 59.8358 174.526 60.5745 174.526 61.271 173.935 61.8619 173.239 61.8619 172.542 61.8619 171.909 61.271 171.909 60.5745ZM172.162 62.9384 174.315 62.9384 174.315 71.3597 172.162 71.3597Z" fill="#2E2D62" transform="matrix(1 0 0 1.00563 -17.6055 -10.6549)"/><path d="M177.249 69.0802 177.249 64.6479 175.455 64.6479 175.455 62.9384 176.025 62.9384C177.059 62.9384 177.46 62.5584 177.46 61.6509L177.46 60.6378 179.423 60.6378 179.423 62.9384 181.639 62.9384 181.639 64.6479 179.402 64.6479 179.402 68.7847C179.402 69.2491 179.528 69.8189 180.52 69.8189 180.774 69.8189 181.09 69.7767 181.344 69.6923L181.344 71.3175C180.964 71.4019 180.457 71.5074 179.866 71.5074 177.523 71.5496 177.249 70.0089 177.249 69.0802Z" fill="#2E2D62" transform="matrix(1 0 0 1.00563 -17.6055 -10.6549)"/><path d="M380.479 55.5301C381.366 55.4879 382.822 55.4246 383.603 55.4246 387.972 55.4246 389.471 57.704 389.471 60.1946 389.471 62.9595 387.761 64.3102 384.363 64.3102L380.479 64.3102ZM377.525 73.5758C377.525 75.8131 376.955 76.4885 374.042 76.4885L373.219 76.4885 373.219 77.1639 386.22 77.1639C391.94 77.1639 393.903 73.217 393.903 70.4099 393.903 67.645 391.94 65.4711 388.605 64.4791L388.605 64.4158C390.99 63.9937 392.658 62.1152 392.658 60.089 392.658 58.3794 391.94 57.1764 390.484 56.1422 389.196 55.2135 386.474 54.7492 383.35 54.7492 382.674 54.7492 379.973 54.7914 378.01 54.8547 376.976 54.8969 374.527 55.0236 373.536 55.0658L373.536 55.7412 374.781 55.7412C377.271 55.7412 377.525 56.8176 377.525 58.8227ZM380.479 64.9856 384.321 64.9856C388.479 64.9856 390.568 67.7928 390.568 70.5365 390.568 73.3014 389.217 76.2141 384.532 76.2141 381.556 76.2141 380.479 75.2643 380.479 72.5627Z" transform="matrix(1 0 0 1.00563 -17.6055 -10.6549)"/><path d="M429.91 55.7412 429.91 55.0658 421.277 55.0658 421.277 55.7412C423.261 55.8467 423.937 56.3744 423.937 58.295L423.937 73.4492C423.937 75.7497 423.494 76.3618 421.467 76.4885 418.766 76.3407 417.605 75.2854 415.663 73.3437L412.856 70.5365C411.189 68.8692 410.112 67.8772 408.804 66.843 411.716 65.9987 413.532 63.7404 413.532 61.081 413.532 57.4508 410.577 54.7492 404.013 54.7492 401.691 54.7492 400.995 54.7914 399.538 54.8547 398.082 54.918 395.908 55.0658 395.064 55.0658L395.064 55.7412 395.845 55.7412C397.913 55.7412 398.504 56.3744 398.504 58.5905L398.504 73.5547C398.504 75.9397 397.765 76.5096 395.655 76.5096L395.043 76.5096 395.043 77.185 405.11 77.185 405.11 76.5096 404.287 76.5096C402.303 76.5096 401.438 75.9819 401.438 73.8502L401.438 67.835C402.008 67.8772 402.472 67.8983 403.253 67.8983 404.224 67.8983 404.773 67.8561 405.68 67.835 406.524 68.4048 407.77 69.439 409.353 71.0009L411.695 73.3437C414.777 76.4251 416.085 77.396 421.868 77.185L429.931 77.185 429.931 76.5096C427.483 76.5096 426.913 75.792 426.913 73.7025L426.913 58.6327C426.892 56.2477 427.673 55.7412 429.91 55.7412ZM403.654 67.2229C402.831 67.2229 402.303 67.2651 401.459 67.1596L401.459 55.509C402.092 55.4457 402.556 55.4457 403.232 55.4457 408.698 55.4457 410.197 57.9995 410.197 61.3132 410.176 65.5555 407.601 67.2229 403.654 67.2229Z" transform="matrix(1 0 0 1.00563 -17.6055 -10.6549)"/><path d="M432.316 71.7818C433.055 74.9477 435.545 76.7839 438.331 76.7839 440.716 76.7839 443.228 75.3909 443.228 72.5838 443.228 67.4551 431.809 65.8932 431.809 59.688 431.809 56.7332 434.511 54.5381 438.141 54.5381 441.117 54.5381 441.729 55.4246 442.975 55.4246 443.249 55.4246 443.397 55.3613 443.608 55.0658L444.178 55.0658 444.79 59.5825 444.178 59.5825C443.186 57.0286 440.906 55.3824 438.458 55.3824 436.115 55.3824 434.469 56.7332 434.469 58.7171 434.469 63.7615 445.887 65.1123 445.887 71.6552 445.887 75.1377 442.785 77.7337 438.627 77.7337 436.664 77.7337 434.194 76.7839 433.688 76.7839 433.371 76.7839 433.118 76.9528 432.97 77.185L432.358 77.185 431.619 71.7818Z" transform="matrix(1 0 0 1.00563 -17.6055 -10.6549)"/><path d="M459.585 73.9135C459.585 75.8342 460.218 76.5096 462.392 76.5096L463.701 76.5096 463.701 77.185 452.514 77.185 452.514 76.5096 453.823 76.5096C455.997 76.5096 456.63 75.8342 456.63 73.9135L456.63 56.3533 450.446 56.3533C449.032 56.3533 448.378 57.1764 447.85 60.3001L447.217 60.3001 447.787 54.5381 448.462 54.5381C448.504 54.7492 448.631 54.8969 448.863 54.9602 449.074 55.0236 449.327 55.0658 449.581 55.0658L466.677 55.0658C467.183 55.0658 467.711 54.9602 467.774 54.5381L468.45 54.5381 469.019 60.3001 468.386 60.3001C467.859 57.1764 467.204 56.3533 465.79 56.3533L459.606 56.3533 459.606 73.9135Z" transform="matrix(1 0 0 1.00563 -17.6055 -10.6549)"/><path d="M491.687 66.6952C491.687 71.7396 488.922 76.8684 483.118 76.8684 477.399 76.8684 472.882 72.1828 472.882 65.5344 472.882 61.271 475.372 55.4457 481.62 55.4457 487.487 55.4246 491.687 60.089 491.687 66.6952ZM495.022 65.5133C495.022 59.1181 489.26 54.5381 482.548 54.5381 474.971 54.5381 469.547 59.5403 469.547 66.6319 469.547 73.2803 475.415 77.7548 482.38 77.7548 489.26 77.7548 495.022 72.6894 495.022 65.5133Z" transform="matrix(1 0 0 1.00563 -17.6055 -10.6549)"/><path d="M511.548 77.185 495.655 77.185 495.655 76.5096 496.837 76.5096C498.462 76.5096 499.075 75.9819 499.075 74.1668L499.075 58.4216C499.075 56.5432 498.505 55.7623 496.267 55.7623L495.761 55.7623 495.761 55.0869 506.251 55.0869 506.251 55.7623 504.942 55.7623C502.641 55.7623 502.029 56.0156 502.029 58.2106L502.029 74.5889C502.029 75.5387 502.43 75.8975 503.443 75.8975L508.678 75.8975C510.767 75.8975 511.422 75.0744 513.659 71.9929L514.292 71.9929Z" transform="matrix(1 0 0 1.00563 -17.6055 -10.6549)"/><path d="M345.507 44.9138C345.486 42.8454 344.768 38.6241 339.829 36.218 344.852 37.8221 347.28 42.0644 347.512 45.2303 352.788 46.2856 357.474 48.7551 365.072 46.1379L365.093 46.1168C365.093 46.1168 355.089 46.2012 350.91 43.1831 353.063 43.2675 355.553 42.782 356.376 41.5579 357.242 40.2493 357.326 38.8985 359.479 38.8352 360.682 38.793 364.755 39.1096 365.177 33.1154 363.869 35.3105 362.455 36.218 360.323 35.6904 358.951 35.3527 356.482 34.2974 354.688 36.4291 353.21 38.1809 351.648 39.0885 349.137 38.8141 350.15 37.4633 365.135 18.0035 365.135 18.0035 365.135 18.0035 345.929 33.4109 344.873 34.3185 344.662 31.5114 345.507 30.4772 346.646 29.2319 347.575 28.2188 349.179 26.8469 347.892 23.9554 346.857 21.6126 347.005 20.1985 349.812 17.9613 347.575 18.1301 344.156 19.6287 344.557 23.7443 344.81 26.2349 343.037 26.4459 342.404 26.8047 340.737 27.7334 340.505 30.4139 340.462 32.5034 340.272 31.828 337.845 21.3594 336.98 17.9824 336.98 17.9824 336.98 46.1168 336.98 46.1168L337.043 46.1168C340.293 44.8293 343.016 44.6394 345.507 44.9138Z" fill="#AB1F2D" transform="matrix(1 0 0 1.00563 -17.6055 -10.6549)"/><path d="M393.27 29.7174 393.27 30.2239C391.497 30.245 390.864 30.9626 390.864 32.6511L390.864 39.7639C390.864 43.0353 388.774 46.5389 383.054 46.5389 378.031 46.5389 375.435 43.6685 375.435 39.8905L375.435 32.1868C375.435 30.4983 374.971 30.245 373.177 30.2028L373.177 29.6963 379.952 29.6963 379.952 30.2028 379.72 30.2028C378.263 30.2028 377.63 30.6038 377.63 32.1235L377.63 39.4684C377.63 43.0353 379.72 45.167 383.645 45.167 386.621 45.167 389.661 43.9218 389.661 39.4473L389.661 33.3054C389.661 30.7727 389.26 30.3294 387.086 30.2239L387.086 29.7174Z" transform="matrix(1 0 0 1.00563 -17.6055 -10.6549)"/><path d="M396.731 43.8162C396.731 45.2726 397.069 45.6103 398.504 45.6103L398.504 46.1168 393.206 46.1168 393.206 45.6103C394.367 45.6103 394.979 44.9771 394.979 43.9429L394.979 38.4131C394.979 37.4422 394.874 37.2522 394.198 37.1256L393.312 36.9356 393.312 36.5135 396.351 35.416 396.773 35.416 396.773 37.4633C398.546 36.3658 400.024 35.3738 401.311 35.3738 403.105 35.3738 404.139 36.6824 404.139 39.3206 404.139 42.8242 403.949 43.5208 403.928 44.5338 403.907 45.2514 404.329 45.5891 405.406 45.5891L405.976 45.5891 405.976 46.0957 400.319 46.0957 400.319 45.5891C401.079 45.568 401.522 45.3781 401.818 45.0826 402.324 44.5761 402.366 42.6554 402.366 39.1518 402.366 37.0412 401.332 36.3869 400.277 36.3869 399.433 36.3869 398.145 37.1256 396.773 38.0754L396.773 43.8162Z" transform="matrix(1 0 0 1.00563 -17.6055 -10.6549)"/><path d="M410.978 44.1117C410.978 45.0404 411.484 45.6103 412.877 45.6103L412.877 46.1168 407.031 46.1168 407.031 45.6103C408.635 45.6103 409.226 45.0826 409.226 43.6896L409.226 38.392C409.226 37.3578 409.099 37.2311 408.403 37.1045L407.158 36.8723 407.158 36.4502 410.577 35.2683 410.978 35.2683ZM409.901 29.3164C410.534 29.3164 411.062 29.7596 411.062 30.3083 411.062 30.8571 410.534 31.3003 409.901 31.3003 409.268 31.3003 408.762 30.8571 408.762 30.3083 408.762 29.7807 409.268 29.3164 409.901 29.3164Z" transform="matrix(1 0 0 1.00563 -17.6055 -10.6549)"/><path d="M418.892 46.349 415.072 37.5899C414.671 36.6613 414.334 36.3447 413.911 36.2814L413.088 36.1547 413.088 35.6693 418.47 35.6693 418.47 36.1336C416.866 36.1758 416.36 36.3869 416.993 37.6322L419.779 44.1961 422.459 38.1176C422.924 37.0412 422.692 36.2814 420.771 36.1336L420.771 35.6693 425.351 35.6693 425.351 36.1336C424.359 36.3236 423.768 36.8934 423.261 38.0543L419.631 46.3279 418.892 46.3279Z" transform="matrix(1 0 0 1.00563 -17.6055 -10.6549)"/><path d="M427.588 38.7297C428.2 36.2814 429.509 35.8803 430.374 35.8803 431.641 35.8803 432.696 37.0201 432.991 38.7297ZM435.208 39.4262 435.208 38.8141C434.342 37.9487 434.427 35.3949 430.86 35.3949 427.652 35.3949 425.773 38.2442 425.773 41.0302 425.773 44.0906 427.778 46.4334 430.353 46.4334 432.274 46.4334 433.941 45.1248 435.039 43.7107L434.743 43.3941C433.751 44.5761 432.717 45.1037 431.387 45.1037 429.298 45.1037 427.377 43.2675 427.377 40.5237 427.377 40.186 427.44 39.8061 427.483 39.4262Z" transform="matrix(1 0 0 1.00563 -17.6055 -10.6549)"/><path d="M440.294 44.1961C440.294 45.2726 440.695 45.6103 442.004 45.6103L442.996 45.6103 442.996 46.1168 436.748 46.1168 436.748 45.6103C438.099 45.5891 438.521 45.0404 438.521 43.6263L438.521 37.5477 436.748 36.9145 436.748 36.4713 439.745 35.416 440.273 35.416 440.273 38.202 440.315 38.202C441.624 36.0492 441.94 35.5426 442.827 35.5426 443.143 35.5426 443.228 35.5638 443.713 35.7748 443.967 35.8803 444.452 35.9859 445.085 36.1758L444.452 37.7588C444.051 37.7166 443.566 37.5688 443.059 37.3367 442.763 37.21 442.447 37.0834 442.13 37.0834 441.645 37.0834 441.37 37.4 441.096 37.7588 440.758 38.2231 440.463 38.6875 440.252 39.0674L440.252 44.1961Z" transform="matrix(1 0 0 1.00563 -17.6055 -10.6549)"/><path d="M446.921 43.4574C447.238 45.0404 448.23 45.9268 449.433 45.9268 450.488 45.9268 451.311 45.1459 451.311 44.1961 451.311 43.6474 451.185 43.3097 450.467 42.5921 448.589 40.7136 446.52 40.5448 446.52 38.3498 446.52 36.6191 447.892 35.3949 449.897 35.3949 450.615 35.3949 451.354 35.5638 452.008 35.817L452.05 38.2231 451.607 38.2231C451.417 36.8723 450.552 36.0281 449.496 36.0281 448.631 36.0281 447.892 36.6402 447.892 37.5055 447.892 39.8272 452.789 40.2282 452.789 43.4363 452.789 45.1459 451.375 46.4334 449.517 46.4334 449.011 46.4334 448.652 46.349 448.357 46.2434 448.061 46.159 447.85 46.0957 447.639 46.0957 447.491 46.0957 447.322 46.2012 447.196 46.4123L446.795 46.4123 446.499 43.4574Z" transform="matrix(1 0 0 1.00563 -17.6055 -10.6549)"/><path d="M458.34 44.1117C458.34 45.0404 458.846 45.6103 460.239 45.6103L460.239 46.1168 454.393 46.1168 454.393 45.6103C455.997 45.6103 456.588 45.0826 456.588 43.6896L456.588 38.392C456.588 37.3578 456.461 37.2311 455.765 37.1045L454.52 36.8723 454.52 36.4502 457.939 35.2683 458.34 35.2683ZM457.263 29.3164C457.897 29.3164 458.424 29.7596 458.424 30.3083 458.424 30.8571 457.897 31.3003 457.263 31.3003 456.63 31.3003 456.124 30.8571 456.124 30.3083 456.124 29.7807 456.63 29.3164 457.263 29.3164Z" transform="matrix(1 0 0 1.00563 -17.6055 -10.6549)"/><path d="M467.753 35.6693 467.331 36.8301 463.975 36.8301 463.975 42.972C463.975 44.6394 465.157 45.1881 465.706 45.1881 466.276 45.1881 466.803 44.7449 467.31 43.8796L467.732 44.2806C467.099 45.6525 466.065 46.4334 464.862 46.4334 463.3 46.4334 462.202 45.1459 462.202 43.373L462.202 36.8301 460.999 36.8301 460.999 36.408C462.033 35.9015 462.92 34.6984 463.532 33.0521L463.975 33.0521 463.975 35.6693Z" transform="matrix(1 0 0 1.00563 -17.6055 -10.6549)"/><path d="M478.18 38.603C478.96 36.598 478.475 36.1969 476.913 36.1547L476.913 35.6693 481.282 35.6693 481.282 36.1336C480.206 36.2603 479.594 36.999 479.087 38.2442L474.613 49.4094C473.811 51.3511 473.22 52.2376 472.291 52.2376 471.658 52.2376 471.215 51.8366 471.215 51.3089 471.215 50.2325 472.734 50.4858 473.41 49.8315 473.705 49.536 474.085 48.8606 474.296 48.3329L475.077 46.349 470.982 37.6744C470.476 36.598 470.011 36.1547 468.893 36.1125L468.893 35.6693 474.19 35.6693 474.19 36.1336C472.586 36.1547 472.396 36.6402 472.924 37.7377L475.9 44.175Z" transform="matrix(1 0 0 1.00563 -17.6055 -10.6549)"/><path d="M489.176 40.0805C489.176 37.8221 490.78 36.0281 492.532 36.0281 494.748 36.0281 496.584 38.5819 496.584 41.579 496.584 44.2173 494.811 45.8002 493.27 45.8002 490.991 45.8002 489.176 43.2675 489.176 40.0805ZM487.213 40.9669C487.213 44.0484 489.725 46.4123 492.975 46.4123 496.12 46.4123 498.568 44.0062 498.568 40.9036 498.568 37.7588 496.12 35.3738 492.912 35.3738 490.147 35.3949 487.213 37.3367 487.213 40.9669Z" transform="matrix(1 0 0 1.00563 -17.6055 -10.6549)"/><path d="M506.208 36.8301 503.359 36.8301 503.359 44.0484C503.359 45.2514 503.823 45.6103 505.301 45.6103L506.293 45.6103 506.293 46.1168 499.792 46.1168 499.792 45.6103C501.312 45.6103 501.586 45.2726 501.586 43.7951L501.586 36.8301 499.644 36.8301 499.644 36.3869C500.383 36.2392 501.016 35.9859 501.586 35.6693 501.586 33.4743 502.05 31.828 503.612 30.2661 504.9 28.9787 506.145 28.3877 507.348 28.3877 508.826 28.3877 510.071 29.2319 510.071 29.6329 510.071 29.844 509.564 30.8993 509.353 30.8993 508.973 30.8993 508.002 29.6118 506.272 29.6118 504.372 29.6118 503.338 31.1104 503.338 33.6642L503.338 35.6693 505.997 35.6693Z" transform="matrix(1 0 0 1.00563 -17.6055 -10.6549)"/><path d="M334.046 17.9824C334.046 17.9824 334.046 45.6736 334.046 46.1168 322.733 41.6634 318.005 50.2958 305.954 46.1168 305.954 46.2434 305.954 17.9824 305.954 17.9824L311.695 17.9824 311.695 21.0217 314.987 21.0217 314.987 17.9824 318.216 17.9824 318.216 21.0217 321.488 21.0217 321.488 17.9824 324.759 17.9824 324.759 21.0217 328.305 21.0217 328.305 17.9824ZM313.235 26.1715C314.523 26.2349 316.106 25.4328 316.19 25.3695 316.19 25.3695 315.642 26.7414 316.866 26.657 318.195 26.5726 319.715 25.8972 319.947 25.7916L319.947 24.0187C319.821 24.1031 318.533 25.0107 317.077 25.3484 316.549 25.475 316.718 24.9896 316.781 24.7152 316.845 24.4408 316.866 24.2298 315.916 24.6097 311.99 26.2349 311.779 25.1162 311.779 24.9896 311.61 25.2007 311.674 26.0871 313.235 26.1715ZM324.696 26.2349C324.696 26.2349 319.588 26.9736 318.111 27.1002 317.098 27.6912 315.937 29.3797 315.937 29.3797 315.937 29.3797 314.734 29.5485 312.349 29.9918 310.682 31.0682 309.69 33.6009 311.758 35.6693 311.104 35.5426 311.104 35.5426 310.154 35.3738 308.107 36.6824 309.056 39.0885 313.299 38.2653 312.096 38.2231 311.505 37.6322 311.526 36.8723 311.505 36.0492 313.109 35.015 315.093 35.5426 313.214 31.9968 315.304 30.6038 315.304 30.6038 315.304 30.6038 314.206 33.5376 316.612 35.9226 316.823 35.5638 317.541 34.5718 319.567 34.5296 321.593 34.4873 322.86 35.4793 322.881 36.6191 322.902 37.6322 321.636 38.6875 319.968 38.6875L319.947 36.2814C319.947 36.2814 319.398 36.4713 319.251 36.6824 319.251 36.7879 319.23 38.7086 319.23 38.7086 318.575 38.7086 317.246 38.4342 316.549 37.3156 316 37.2522 312.982 36.809 312.982 36.809L313.151 37.611C313.151 37.611 314.206 37.7799 314.417 38.8563 314.671 40.1438 315.388 41.3257 316.043 41.7901 317.309 41.6423 319.398 40.0594 323.24 40.1016 319.715 40.587 316.127 44.365 310.956 42.9298 319.166 45.7369 320.01 39.5106 330.289 41.4524 328.685 40.4815 326.3 40.1649 326.3 40.1649 326.3 40.1649 327.588 38.7719 327.63 36.6613 327.799 36.6613 328.01 36.6402 328.411 36.598 328.537 35.9226 328.643 35.2261 328.643 35.2261 328.643 35.2261 326.406 35.2261 324.527 35.2261 319.926 30.6038 324.696 26.2349 324.696 26.2349ZM326.659 33.1999C326.448 32.039 326.553 29.7174 327.693 27.4379 323.472 30.6249 323.43 33.1999 323.43 33.1999 323.43 33.1999 324.253 32.5667 326.659 33.1999Z" fill="#AB1F2D" transform="matrix(1 0 0 1.00563 -17.6055 -10.6549)"/><path d="M365.072 49.0083C365.072 48.5651 365.072 77.185 365.072 77.185 349.496 80.9841 349.052 72.7105 336.98 77.185 336.98 77.5438 336.98 49.0083 336.98 49.0083 348.06 44.365 352.387 53.1662 365.072 49.0083ZM358.803 52.1954C356.292 53.0818 356.672 55.7834 357.347 56.8176 358.234 58.1684 358.972 58.2106 359.542 59.7935 359.985 61.0388 359.204 61.6931 358.424 61.9675 359.753 62.7906 361.104 61.9464 361.611 61.1232 362.518 59.9202 361.484 58.3583 362.455 57.5563 362.708 57.3452 363.151 57.1975 363.742 57.1553 363.151 56.3321 361.779 56.4166 361.231 57.1975 360.851 56.2899 359.753 55.509 360.154 54.116 360.408 53.2084 361.843 52.8707 362.392 53.6095 362.687 54.0105 362.729 54.8125 361.864 55.2346 362.413 55.1924 363.447 54.2638 362.729 52.9763 362.223 52.0687 361.4 52.0054 360.724 52.0054 359.479 52.0054 357.432 53.4195 358.74 56.4799 357.98 55.8256 356.756 53.4828 358.803 52.1954ZM342.953 57.6618C342.953 57.6618 342.552 58.1473 342.995 58.2739 342.995 58.4216 343.058 58.696 343.122 58.8438 343.206 59.0337 343.333 58.9704 343.459 58.8227 343.607 58.6538 343.839 58.3583 344.008 58.1684 344.156 57.9995 344.684 58.0628 344.472 58.4005 344.325 58.6116 344.219 58.6749 344.029 58.7171 343.881 58.7593 343.839 58.6327 343.692 58.8438 343.523 59.0759 343.354 59.2237 343.649 59.2237 343.797 59.2237 344.093 59.3714 344.282 59.3292 344.472 59.3081 344.494 59.1815 344.515 59.0126 344.536 58.8438 344.494 58.7382 344.684 58.6327 344.937 58.5061 345.296 58.1684 345.401 58.0628 345.528 57.9362 345.697 57.9573 345.844 57.9573 345.992 57.9573 346.794 58.0628 347.258 57.3452 347.596 56.8598 347.617 56.1633 347.512 55.5723 347.744 55.8045 348.039 56.501 347.871 57.1553 347.596 58.3372 347.005 58.4005 346.414 58.5272 346.161 58.8649 345.549 59.7724 345.211 61.3765 345.063 61.4609 343.881 62.6218 344.873 64.4791 344.62 64.5635 343.86 64.8801 343.417 64.9856 343.122 65.049 342.868 65.0701 342.742 65.2178 342.615 65.3867 342.299 65.9143 342.446 66.1676 342.552 66.3575 343.312 68.0038 343.354 68.5315 343.417 69.038 343.607 69.1646 343.776 69.3335 343.987 69.5234 344.114 69.5023 344.388 69.7134 344.684 69.9245 344.916 70.3255 345.19 70.5365 345.486 70.7687 345.802 70.8531 346.013 70.832 345.95 70.0089 345.781 69.1858 345.528 68.9114 345.253 68.637 344.916 69.038 344.831 69.0591 344.747 69.0802 344.641 68.9958 344.578 68.7636 344.536 68.5315 344.747 68.3415 344.536 68.0249 344.156 67.4551 343.797 66.8219 343.755 66.7374 343.48 66.2098 343.945 66.0832 344.05 66.1043 344.325 66.1676 345.908 66.3786 346.14 66.3997 346.393 66.4209 346.52 66.4631 346.625 66.3364 346.963 65.9565 347.153 65.6821 347.343 65.3022 347.702 65.5766 347.448 66.0832 347.343 66.6741 347.448 66.7586 349.749 67.9194 352.915 67.0751 354.245 66.7163 354.097 66.9907 354.202 67.244 354.962 68.7425 355.511 69.3124 356.418 70.03 356.693 70.2411 356.883 70.5999 357.009 70.8109 357.136 71.022 357.157 71.3808 357.073 71.613 356.946 71.9084 356.25 73.1748 356.123 73.3437 355.891 73.6814 355.595 73.9768 355.342 74.1035 354.54 74.5256 354.35 74.9055 354.245 75.2221 354.435 75.2221 356.313 75.2221 356.313 75.2221 356.313 75.2221 356.355 75.1166 356.334 74.8633 356.292 74.5045 356.63 74.4412 356.735 74.4201 356.841 74.399 357.031 74.4834 357.178 74.1035 357.495 73.3648 358.677 71.3386 358.782 71.1697 358.888 70.9798 359.268 70.4943 358.888 70.2833 358.191 69.8823 357.79 69.2069 357.643 68.447 357.579 68.1516 357.622 67.6661 358.297 66.8219 359.732 65.0279 358.656 61.3343 355.448 61.3976 353.632 61.4398 352.619 61.271 351.437 61.0388 350.994 60.9544 350.931 60.7222 351.015 60.4478 351.121 60.1735 351.205 59.6458 351.205 59.4136 350.889 59.1181 350.424 58.9493 350.192 58.8649 349.939 58.7805 349.812 58.5694 350.066 58.5694 350.319 58.5483 351.269 58.6538 351.269 58.6538 351.269 58.6538 351.311 58.1473 351.163 57.3874 350.762 57.2186 350.234 57.0709 349.686 56.9864 349.538 56.9653 349.411 56.8176 349.791 56.7543 350.277 56.6909 350.699 56.7543 351.036 56.7332 351.058 56.6909 350.868 55.7412 350.53 55.3613 350.298 55.2979 350.171 55.2557 349.348 55.1713 349.052 55.1291 349.052 55.0658 349.242 55.0025 349.453 54.9391 349.833 54.8547 350.298 54.8969 350.129 54.6437 348.947 52.4908 346.478 53.1451 346.752 53.4828 346.879 53.6306 346.963 53.8627 347.026 54.0738 346.815 54.1371 346.625 53.9261 345.844 53.1029 345.443 53.124 344.937 53.0396 345.253 53.3562 345.401 53.6728 345.528 53.9894 344.958 54.3904 344.177 55.3402 344.05 55.509 343.839 55.8678 344.135 56.0367 344.135 56.0367ZM344.114 63.0228C342.974 62.5584 342.721 62.2418 342.51 62.1574 342.32 62.073 341.539 62.4107 341.412 62.7484 341.053 63.656 340.272 65.1545 340.146 65.3656 340.082 65.4711 340.019 65.6188 340.04 65.7666 340.061 65.9143 340.103 66.5053 340.082 66.6319 340.061 66.7586 340.082 66.9485 340.146 67.0751 340.209 67.2018 340.272 67.7928 340.568 68.3837 341.243 67.7083 341.328 66.7374 341.285 66.9274 341.285 66.9274 341.496 66.5686 340.969 66.3997 340.821 66.3575 340.842 65.9565 341.011 65.9143 341.201 65.851 341.307 65.8088 341.412 65.45 341.518 65.0912 341.855 63.8248 341.982 63.5715 342.003 63.5293 342.024 63.466 342.109 63.4449 342.214 63.4027 342.341 63.3605 342.425 63.3394 342.467 63.3394 342.573 63.3816 342.594 63.4238 342.784 63.6137 343.713 64.3736 343.713 64.3736 343.713 64.3736 344.135 64.3314 344.388 64.2258 344.198 63.9514 344.135 63.3394 344.114 63.0228ZM354.54 70.4732C354.097 70.832 352.704 71.5496 352.366 71.6974 352.028 71.8662 351.902 71.9506 351.648 72.4572 351.332 73.0693 351.036 74.1879 351.121 74.2723 351.986 74.1457 352.598 73.407 352.598 73.407 352.598 73.407 352.619 73.2381 352.429 72.9215 352.282 72.6683 352.577 72.415 352.767 72.5627 352.915 72.6894 353.105 72.7105 353.231 72.6049 353.358 72.4994 356.017 70.8109 356.144 70.5999 355.595 70.0722 355.194 69.5234 355.194 69.5234 355.194 69.5234 355.004 70.0933 354.54 70.4732ZM344.852 56.2477C344.852 56.2477 344.726 56.1844 344.979 55.9733 345 55.9522 345.063 56.0156 345.211 56.0156 345.401 56.0156 345.507 55.9522 345.676 55.7412 345.929 55.4457 345.401 55.3191 345.232 55.4668 345.042 55.6356 344.916 55.7834 344.747 55.9311 344.747 55.9311 344.494 56.1844 344.852 56.2477Z" fill="#AB1F2D" transform="matrix(1 0 0 1.00563 -17.6055 -10.6549)"/><path d="M334.046 49.0083C334.046 49.0083 334.046 77.5438 334.046 77.185 321.973 72.7105 321.53 80.9841 305.954 77.185 305.954 77.185 305.954 48.5651 305.954 49.0083 318.639 53.1662 322.965 44.365 334.046 49.0083ZM314.903 67.5184C314.797 68.7214 314.122 68.8903 314.122 68.8903 312.919 68.3415 312.286 69.84 313.278 70.2833 314.544 70.8531 315.325 69.2069 315.409 68.8903 315.62 68.0249 315.642 67.4128 315.557 66.0198 315.473 64.8168 315.768 64.6479 315.958 64.6057 316.148 64.5635 316.57 64.5635 316.971 65.8088 317.372 67.054 318.259 67.2229 318.259 67.2229 318.259 67.2229 316.971 65.1334 318.765 63.2127 319.588 62.3263 321.277 61.8197 320.96 60.5534 320.96 60.5534 320.707 60.9966 320.2 61.1232 319.694 61.2499 318.702 61.3976 318.702 61.3976 318.702 61.3976 321.066 60.279 321.488 59.0126 321.488 59.0126 322.227 60.2368 321.235 62.0308 321.235 62.0308 322.163 61.6931 323.176 62.1574 325.751 63.2972 325.477 66.9485 322.227 67.8139 317.604 69.0591 319.293 72.626 321.931 72.8371 321.657 72.6472 321.572 71.5707 322.058 70.9376 322.29 70.7265 322.712 70.3044 322.965 71.1908 323.43 72.7316 324.78 72.8582 325.414 72.6683 325.245 72.5205 324.949 72.0562 324.97 71.7818 325.055 71.233 325.73 71.8029 325.962 71.8662 327.778 72.3728 328.748 71.9295 328.854 71.6552 328.453 71.5707 328.516 71.613 328.263 71.5496 328.031 71.4863 327.545 71.1486 328.432 70.9587 330.036 70.5999 330.922 68.9325 329.867 67.6661 328.854 66.442 327.588 66.6319 327.165 66.8008 328.917 67.1807 329.002 68.5737 328.115 69.2913 327.334 69.8823 325.414 70.0933 324.759 68.8058 324.337 69.1013 324.189 69.5868 324.274 70.1777 324.105 70.1144 323.366 69.0802 324.464 68.2149 329.487 64.9645 328.685 59.5403 324.422 57.2819L324.358 57.2608C320.496 55.0447 317.119 57.0709 317.119 57.0709 319.504 54.6859 323.62 56.1 324.211 56.3955 324.211 56.3955 323.746 55.9733 323.493 55.6145 323.176 55.1291 323.176 54.6648 323.176 54.6648 321.53 55.5723 321.108 54.1793 321.108 54.1793 321.108 54.1793 319.694 55.4668 318.765 54.4115 317.963 53.5039 319.272 52.2587 319.272 52.2587 310.977 54.9814 312.539 59.6669 312.539 59.6669 312.539 59.6669 311.336 60.7644 311.062 63.4238 310.766 66.442 312.265 68.5948 314.143 68.0038 314.565 67.8772 314.797 67.6661 314.861 67.4339ZM314.502 65.7243C314.903 65.7032 314.966 65.1967 314.882 64.9434 314.797 64.6268 314.27 64.5846 314.143 64.9856 314.016 65.3867 314.122 65.7666 314.122 65.7666 314.227 66.1465 314.65 66.252 314.692 66.2098 314.481 65.9776 314.544 65.8721 314.502 65.7243ZM316.19 65.0912C316.19 65.0912 315.705 65.4078 316.317 66.7586 316.929 68.1093 317.71 69.3757 316.359 70.8531 317.119 70.8531 318.765 69.8611 316.992 66.8852 316.591 66.2098 316.148 65.7455 316.19 65.0912Z" fill="#AB1F2D" transform="matrix(1 0 0 1.00563 -17.6055 -10.6549)"/></g></svg>